name Walk6.mot
datacolumns 19
datarows 25
range 1.71000000 1.83000000
endheader

                time	   L_ground_force_vx	   L_ground_force_vy	   L_ground_force_vz	   L_ground_force_px	   L_ground_force_py	   L_ground_force_pz	   R_ground_force_vx	   R_ground_force_vy	   R_ground_force_vz	   R_ground_force_px	   R_ground_force_py	   R_ground_force_pz	   L_ground_torque_x	   L_ground_torque_y	   L_ground_torque_z	   R_ground_torque_x	   R_ground_torque_y	   R_ground_torque_z	
          1.71000000	         19.01132025	        941.68646685	         59.56334051	         -0.16627731	          0.00000000	         -0.01190289	         -0.00658417	          0.16509092	          0.01971763	          0.00017138	          0.00000000	          0.00004680	          0.00000000	         -2.38567480	          0.00000000	          0.00000000	         -0.00000940	          0.00000000	
          1.71500000	         22.27154562	        952.56031002	         60.56765774	         -0.16517310	          0.00000000	         -0.01211929	         -0.01441799	          0.26029368	          0.02942353	          0.00024111	          0.00000000	          0.00006551	          0.00000000	         -2.47950756	          0.00000000	          0.00000000	          0.00095576	          0.00000000	
          1.72000000	         25.91191020	        963.76440560	         61.64289058	         -0.16413905	          0.00000000	         -0.01231907	         -0.02485574	          0.37664943	          0.04092997	          0.00032010	          0.00000000	          0.00008659	          0.00000000	         -2.58145675	          0.00000000	          0.00000000	          0.00234293	          0.00000000	
          1.72500000	         29.93798351	        975.22087284	         62.76560043	         -0.16316985	          0.00000000	         -0.01250417	         -0.03806675	          0.51164077	          0.05382506	          0.00040381	          0.00000000	          0.00010879	          0.00000000	         -2.68915728	          0.00000000	          0.00000000	          0.00421711	          0.00000000	
          1.73000000	         34.34974261	        986.84858240	         63.90892035	         -0.16226041	          0.00000000	         -0.01267560	         -0.05397303	          0.65904384	          0.06729526	          0.00048454	          0.00000000	          0.00013000	          0.00000000	         -2.80009889	          0.00000000	          0.00000000	          0.00661958	          0.00000000	
          1.73500000	         39.14102120	        998.56205685	         65.04561102	         -0.16140580	          0.00000000	         -0.01283423	         -0.07212058	          0.80762260	          0.08000103	          0.00055066	          0.00000000	          0.00014703	          0.00000000	         -2.91194994	          0.00000000	          0.00000000	          0.00954956	          0.00000000	
          1.74000000	         44.29913099	       1010.26937656	         66.15027520	         -0.16060022	          0.00000000	         -0.01298213	         -0.09152499	          0.93971075	          0.08994777	          0.00058587	          0.00000000	          0.00015546	          0.00000000	         -3.02282049	          0.00000000	          0.00000000	          0.01294078	          0.00000000	
          1.74500000	         49.80559657	       1021.87378716	         67.20119551	         -0.15983712	          0.00000000	         -0.01312151	         -0.11049625	          1.02979362	          0.09436543	          0.00056851	          0.00000000	          0.00014942	          0.00000000	         -3.13121259	          0.00000000	          0.00000000	          0.01663303	          0.00000000	
          1.75000000	         55.63520964	       1033.27189034	         68.18236453	         -0.15910966	          0.00000000	         -0.01325364	         -0.12645235	          1.04326454	          0.08961634	          0.00047134	          0.00000000	          0.00012159	          0.00000000	         -3.23534826	          0.00000000	          0.00000000	          0.02033932	          0.00000000	
          1.75500000	         61.75589339	       1044.35035967	         69.08316135	         -0.15841006	          0.00000000	         -0.01337943	         -0.13573884	          0.93560700	          0.07115848	          0.00026167	          0.00000000	          0.00006319	          0.00000000	         -3.33313009	          0.00000000	          0.00000000	          0.02361042	          0.00000000	
          1.76000000	         68.12957508	       1054.98642448	         69.89583594	         -0.15773019	          0.00000000	         -0.01349985	         -0.13347959	          0.65234141	          0.03359984	         -0.00009755	          0.00000000	         -0.00003567	          0.00000000	         -3.42233496	          0.00000000	          0.00000000	          0.02579949	          0.00000000	
          1.76500000	         74.71590433	       1065.05311398	         70.61324589	         -0.15706266	          0.00000000	         -0.01361567	         -0.11349479	          0.13017079	         -0.02911216	         -0.00064568	          0.00000000	         -0.00018543	          0.00000000	         -3.50075550	          0.00000000	          0.00000000	          0.02603128	          0.00000000	
          1.77000000	         81.47676729	       1074.42826191	         71.22817795	         -0.15640138	          0.00000000	         -0.01372813	         -0.06833380	         -0.70014521	         -0.12331362	         -0.00142079	          0.00000000	         -0.00039609	          0.00000000	         -3.56592443	          0.00000000	          0.00000000	          0.02318233	          0.00000000	
          1.77500000	         88.37968111	       1083.00026437	         71.73406792	         -0.15574126	          0.00000000	         -0.01383810	          0.01051681	         -1.90857556	         -0.25500143	         -0.00245425	          0.00000000	         -0.00067575	          0.00000000	         -3.61530472	          0.00000000	          0.00000000	          0.01588071	          0.00000000	
          1.78000000	         95.39817986	       1090.67272167	         72.12628577	         -0.15507794	          0.00000000	         -0.01394530	          0.13217783	         -3.55759637	         -0.42890390	         -0.00376315	          0.00000000	         -0.00102851	          0.00000000	         -3.64629269	          0.00000000	          0.00000000	          0.00253618	          0.00000000	
          1.78500000	        102.51180969	       1097.36463934	         72.40417489	         -0.15440751	          0.00000000	         -0.01404857	          0.30559231	         -5.69029443	         -0.64718799	         -0.00534010	          0.00000000	         -0.00145174	          0.00000000	         -3.65674879	          0.00000000	          0.00000000	         -0.01858580	          0.00000000	
          1.79000000	        109.70550768	       1103.00982116	         72.57176011	         -0.15372655	          0.00000000	         -0.01414688	          0.53832323	         -8.31420743	         -0.90775931	         -0.00714059	          0.00000000	         -0.00193268	          0.00000000	         -3.64524182	          0.00000000	          0.00000000	         -0.04923083	          0.00000000	
          1.79500000	        116.96949352	       1107.55807878	         72.63750895	         -0.15303217	          0.00000000	         -0.01423938	          0.83484874	        -11.38050888	         -1.20213674	         -0.00906761	          0.00000000	         -0.00244429	          0.00000000	         -3.61137386	          0.00000000	          0.00000000	         -0.09094653	          0.00000000	
          1.80000000	        124.29711678	       1110.97311695	         72.61223234	         -0.15232221	          0.00000000	         -0.01432453	          1.19428430	        -14.75850083	         -1.51292571	         -0.01095426	          0.00000000	         -0.00294065	          0.00000000	         -3.55585889	          0.00000000	          0.00000000	         -0.14478088	          0.00000000	
          1.80500000	        131.68053528	       1113.22480045	         72.50489953	         -0.15159525	          0.00000000	         -0.01440047	          1.60749203	        -18.20593537	         -1.81097749	         -0.01254530	          0.00000000	         -0.00335198	          0.00000000	         -3.48060422	          0.00000000	          0.00000000	         -0.21087353	          0.00000000	
          1.81000000	        139.10632553	       1114.27792219	         72.31722853	         -0.15084893	          0.00000000	         -0.01446665	          2.05359088	        -21.33649179	         -2.05240902	         -0.01347915	          0.00000000	         -0.00358002	          0.00000000	         -3.38861065	          0.00000000	          0.00000000	         -0.28793043	          0.00000000	
          1.81500000	        146.55130675	       1114.08427437	         72.04012097	         -0.15007916	          0.00000000	         -0.01452321	          2.49596295	        -23.58682938	         -2.17577279	         -0.01327302	          0.00000000	         -0.00349410	          0.00000000	         -3.28417070	          0.00000000	          0.00000000	         -0.37258150	          0.00000000	
          1.82000000	        153.97925368	       1112.57955974	         71.65046674	         -0.14928045	          0.00000000	         -0.01456931	          2.87796666	        -24.18704177	         -2.09980987	         -0.01131464	          0.00000000	         -0.00292920	          0.00000000	         -3.17254969	          0.00000000	          0.00000000	         -0.45863490	          0.00000000	
          1.82500000	        161.33979341	       1109.68169785	         71.11013285	         -0.14844657	          0.00000000	         -0.01460278	          3.11872139	        -22.14005937	         -1.72238930	         -0.00686538	          0.00000000	         -0.00168705	          0.00000000	         -3.05922832	          0.00000000	          0.00000000	         -0.53626226	          0.00000000	
          1.83000000	        168.56829498	       1105.29197648	         70.36922861	         -0.14757115	          0.00000000	         -0.01461976	          3.10952352	        -16.21754553	         -0.92142837	          0.00091940	          0.00000000	          0.00045800	          0.00000000	         -2.94952407	          0.00000000	          0.00000000	         -0.59117660	          0.00000000	
